<mxfile host="app.diagrams.net" modified="2023-06-19T11:11:01.526Z" agent="Mozilla/5.0 (X11; Linux x86_64) AppleWebKit/537.36 (KHTML, like Gecko) Chrome/113.0.0.0 Safari/537.36 OPR/99.0.0.0" version="21.3.2" etag="hXVb_bDOhjtypEn376FS" type="github">
  <diagram name="Page-1" id="PPob_wAlFK7glZ7cmZf1">
    <mxGraphModel>
      <root>
        <mxCell id="0" />
        <mxCell id="1" parent="0" />
      </root>
    </mxGraphModel>
  </diagram>
</mxfile>
